<?xml version="1.0" encoding="utf-8"?>
<!-- Generator: Adobe Illustrator 27.5.0, SVG Export Plug-In . SVG Version: 6.00 Build 0)  -->
<svg version="1.1" xmlns="http://www.w3.org/2000/svg" xmlns:xlink="http://www.w3.org/1999/xlink" x="0px" y="0px"
	 viewBox="0 0 500 500" style="enable-background:new 0 0 500 500;" xml:space="preserve">
<g id="BACKGROUND">
	<rect style="fill:#E8F5E9;" width="500" height="500"/>
</g>
<g id="OBJECTS">
	<g>
		<path style="fill:#F0F7FB;" d="M414.168,397.784c0,0,94.861,3.093,84.55,26.809c-10.311,23.715-120.638,43.306-92.799,57.741
			c27.84,14.435-321.702,16.497-333.044,2.062c-11.342-14.435,60.835-9.28,52.586-30.933
			c-8.249-21.653-161.422-32.001-84.836-67.556C117.213,350.354,400.764,346.23,414.168,397.784z"/>
		<g>
			<g>
				<g>
					<path style="fill:#D8E9F4;" d="M448.194,397.784c0,0,9.907-165.272-18.56-171.162c-10.201-2.11,14.39-21.12,0.161,0.171
						c-8.399-26.632-16.015-48.328-21.089-57.673c-18.65-34.356-53.007,39.264-88.212,95.215s-15.838-148.222-74.734-166.872
						c-58.896-18.65-80.491,209.081-117.792,179.633c-37.301-29.448-9.593,89.986-47.876,53.667s-43.306,67.021-43.306,67.021
						l316.951-6.822l57.915,14.724l39.635,0.346C451.288,406.033,450.161,405.138,448.194,397.784L448.194,397.784z"/>
				</g>
				<g>
					<g>
						<g>
							<path style="fill:none;stroke:#BAD8EB;stroke-width:0.9816;stroke-miterlimit:10;" d="M31.772,306.545
								c0,0-0.066-0.689-0.144-1.954"/>
							<path style="fill:none;stroke:#BAD8EB;stroke-width:0.9816;stroke-miterlimit:10;stroke-dasharray:3.936,3.936;" d="
								M31.449,300.662c-0.632-20.454,1.583-87.593,57.256-94.24c65.767-7.853,16.687,79.51-8.834,26.503
								c-25.522-53.007,47.117-122.7,91.289-87.363c0,0,113.866,95.215,150.676,17.669c34.424-72.519,73.569-85.805,91.344-77.59"/>
							<path style="fill:none;stroke:#BAD8EB;stroke-width:0.9816;stroke-miterlimit:10;" d="M414.93,86.559
								c0.571,0.338,1.115,0.702,1.63,1.088"/>
						</g>
					</g>
					<g>
						<g>
							<path style="fill:none;stroke:#DD4C65;stroke-width:0.9816;stroke-miterlimit:10;" d="M236.916,223.062
								c0,0,23.318-66.355-25.183-62.624c-48.501,3.731-18.654,51.564-27.048,62.624c-8.394,11.06-24.25,0.133-46.636,0
								c-22.385-0.133-32.645,50.233,9.327,60.493c41.972,10.26,9.327,21.452-12.125,16.789
								c-21.452-4.664-41.039,29.847,11.198,54.099c34.708,16.113,78.832,20.563,114.705,5.385
								c12.218-5.169,51.04-27.986,34.229-45.638c-9.096-9.551-39.635-3.228-27.23-24.998c3.134-5.499,8.519-9.354,14.113-12.314
								c12.24-6.478,28.843-9.382,26.33-26.714c-4.175-28.8-47.422-24.213-67.015-20.707L236.916,223.062z"/>
							
								<line style="fill:none;stroke:#37424F;stroke-width:1.9645;stroke-miterlimit:10;" x1="218.1" y1="194.721" x2="218.1" y2="405.215"/>
						</g>
						<g>
							<path style="fill:none;stroke:#F2B468;stroke-width:0.9816;stroke-miterlimit:10;" d="M398.181,192.23
								c0,0,19.157-54.516-20.69-51.451c-39.848,3.065-15.326,42.364-22.223,51.451c-6.897,9.087-19.924,0.109-38.315,0
								c-18.391-0.109-26.82,41.271,7.663,49.7c34.483,8.429,7.663,17.625-9.962,13.793c-17.625-3.831-33.717,24.521,9.199,44.447
								c28.516,13.238,64.767,16.894,94.24,4.425c10.038-4.247,41.934-22.993,28.122-37.495
								c-7.473-7.847-32.563-2.652-22.372-20.538c2.574-4.518,6.999-7.685,11.595-10.117c10.056-5.322,23.697-7.708,21.632-21.947
								c-3.43-23.662-38.961-19.893-55.059-17.012L398.181,192.23z"/>
							
								<line style="fill:none;stroke:#37424F;stroke-width:1.614;stroke-miterlimit:10;" x1="382.723" y1="168.945" x2="382.723" y2="341.883"/>
						</g>
					</g>
					<g>
						<path style="fill:#4DC7B8;" d="M480.443,276.451h-117.7c-2.767,0-5.011-2.243-5.011-5.011v-63.175
							c0-2.768,2.243-5.011,5.011-5.011h117.7c2.768,0,5.011,2.244,5.011,5.011v63.175
							C485.454,274.208,483.21,276.451,480.443,276.451z"/>
						<g>
							<path style="fill:#F2C998;" d="M390.017,248.832h-20.38c-2.593,0-4.694-2.102-4.694-4.694v-8.57
								c0-2.593,2.102-4.695,4.694-4.695h20.38c2.593,0,4.694,2.102,4.694,4.695v8.57
								C394.711,246.73,392.609,248.832,390.017,248.832z"/>
							
								<line style="fill:none;stroke:#F2E4D3;stroke-width:0.3423;stroke-miterlimit:10;" x1="371.336" y1="230.874" x2="371.336" y2="248.832"/>
							
								<line style="fill:none;stroke:#F2E4D3;stroke-width:0.3423;stroke-miterlimit:10;" x1="387.374" y1="230.874" x2="387.374" y2="248.832"/>
							
								<line style="fill:none;stroke:#F2E4D3;stroke-width:0.3423;stroke-miterlimit:10;" x1="364.942" y1="236.044" x2="394.711" y2="236.044"/>
							
								<line style="fill:none;stroke:#F2E4D3;stroke-width:0.3423;stroke-miterlimit:10;" x1="364.942" y1="243.676" x2="394.711" y2="243.676"/>
						</g>
						
							<text transform="matrix(1 0 0 1 374.9121 264.1699)" style="fill:#FFFFFF; font-family:'FiraSans-Book'; font-size:10.8774px;">123 456 789 000 123</text>
						<g>
							
								<text transform="matrix(1 0 0 1 439.7207 225.9609)" style="fill:#FFFFFF; font-family:'Raleway-Medium'; font-size:14.7235px;">BANK</text>
						</g>
						
							<rect x="405.313" y="233.853" style="fill:none;stroke:#3D9E92;stroke-width:0.3423;stroke-miterlimit:10;" width="62.643" height="3.708"/>
						
							<rect x="405.313" y="241.533" style="fill:none;stroke:#3D9E92;stroke-width:0.2688;stroke-miterlimit:10;" width="38.637" height="3.708"/>
						<rect x="368.087" y="214.64" style="fill:#3D9E92;" width="61.873" height="8.286"/>
					</g>
					<g>
						<g>
							<rect x="79.386" y="350.669" style="fill:#F2C38A;" width="32.646" height="45.202"/>
							<rect x="112.032" y="350.669" style="fill:#F2B468;" width="32.646" height="45.202"/>
							<rect x="92.2" y="350.669" style="fill:#F2B468;" width="7.323" height="45.202"/>
							<rect x="125.151" y="350.669" style="fill:#F2C38A;" width="7.323" height="45.202"/>
						</g>
						<g>
							<rect x="125.336" y="320.287" style="fill:#DD4C65;" width="32.691" height="75.583"/>
							<rect x="154.226" y="320.287" style="fill:#DD314E;" width="32.691" height="75.583"/>
						</g>
						<g>
							<rect x="36.68" y="364.46" style="fill:#4DC7B8;" width="26.18" height="33.375"/>
							<rect x="59.815" y="364.46" style="fill:#2EA394;" width="26.18" height="33.375"/>
						</g>
					</g>
					<g>
						<path style="fill:#131A36;" d="M363.799,404.214H236.682c-6.099,0-11.043-4.944-11.043-11.043V146.298
							c0-6.099,4.944-11.043,11.043-11.043h127.118c6.099,0,11.043,4.944,11.043,11.043v246.873
							C374.842,399.27,369.898,404.214,363.799,404.214z"/>
						<g>
							<path style="fill:#FFFFFF;" d="M229.074,393.112V146.357c0-0.71,0.576-1.286,1.286-1.286h139.76
								c0.71,0,1.286,0.576,1.286,1.286v246.755c0,0.71-0.576,1.286-1.286,1.286H230.36
								C229.65,394.398,229.074,393.823,229.074,393.112z"/>
							<g>
								<g>
									<path style="fill:#BAD8EB;" d="M368.462,228.998h-67.731c-0.542,0-0.982-0.439-0.982-0.982l0,0
										c0-0.542,0.439-0.982,0.982-0.982h67.731c0.542,0,0.982,0.439,0.982,0.982l0,0
										C369.443,228.559,369.004,228.998,368.462,228.998z"/>
									<path style="fill:#BAD8EB;" d="M352.874,234.888h-52.26c-0.477,0-0.864-0.387-0.864-0.864v-0.235
										c0-0.477,0.387-0.864,0.864-0.864h52.26c0.477,0,0.864,0.387,0.864,0.864v0.235
										C353.738,234.501,353.351,234.888,352.874,234.888z"/>
									<path style="fill:#BAD8EB;" d="M368.462,244.704h-67.731c-0.542,0-0.982-0.439-0.982-0.982l0,0
										c0-0.542,0.439-0.982,0.982-0.982h67.731c0.542,0,0.982,0.439,0.982,0.982l0,0
										C369.443,244.264,369.004,244.704,368.462,244.704z"/>
									<path style="fill:#BAD8EB;" d="M352.874,250.594h-52.26c-0.477,0-0.864-0.387-0.864-0.864v-0.235
										c0-0.477,0.387-0.864,0.864-0.864h52.26c0.477,0,0.864,0.387,0.864,0.864v0.235
										C353.738,250.207,353.351,250.594,352.874,250.594z"/>
								</g>
								<g>
									<path style="fill:none;stroke:#BAD8EB;stroke-width:0.9816;stroke-miterlimit:10;" d="M360.118,163.231H236.436
										c-1.355,0-2.454-1.099-2.454-2.454l0,0c0-1.355,1.099-2.454,2.454-2.454h123.682c1.355,0,2.454,1.099,2.454,2.454l0,0
										C362.572,162.132,361.473,163.231,360.118,163.231z"/>
									<path style="fill:#BAD8EB;" d="M360.118,174.029H236.436c-1.355,0-2.454-1.099-2.454-2.454l0,0
										c0-1.355,1.099-2.454,2.454-2.454h123.682c1.355,0,2.454,1.099,2.454,2.454l0,0
										C362.572,172.93,361.473,174.029,360.118,174.029z"/>
								</g>
								<g>
									
										<rect x="233.982" y="264.336" style="fill:none;stroke:#BAD8EB;stroke-width:0.9816;stroke-miterlimit:10;" width="133.498" height="50.062"/>
									<g>
										<g>
											<path style="fill:#BAD8EB;" d="M300.24,269.735h-60.859c-0.542,0-0.982-0.439-0.982-0.982l0,0
												c0-0.542,0.439-0.982,0.982-0.982h60.859c0.542,0,0.982,0.439,0.982,0.982l0,0
												C301.222,269.295,300.783,269.735,300.24,269.735z"/>
											<path style="fill:#BAD8EB;" d="M280.294,276.115h-40.6c-0.444,0-0.805-0.36-0.805-0.805v-0.354
												c0-0.444,0.36-0.805,0.805-0.805h40.6c0.444,0,0.805,0.36,0.805,0.805v0.354
												C281.099,275.755,280.739,276.115,280.294,276.115z"/>
										</g>
										<g>
											<path style="fill:#BAD8EB;" d="M300.24,284.459h-60.859c-0.542,0-0.982-0.439-0.982-0.982l0,0
												c0-0.542,0.439-0.982,0.982-0.982h60.859c0.542,0,0.982,0.439,0.982,0.982l0,0
												C301.222,284.019,300.783,284.459,300.24,284.459z"/>
											<path style="fill:#BAD8EB;" d="M280.294,290.839h-40.6c-0.444,0-0.805-0.36-0.805-0.805v-0.354
												c0-0.444,0.36-0.805,0.805-0.805h40.6c0.444,0,0.805,0.36,0.805,0.805v0.354
												C281.099,290.479,280.739,290.839,280.294,290.839z"/>
										</g>
										<g>
											<path style="fill:#BAD8EB;" d="M300.24,300.164h-60.859c-0.542,0-0.982-0.439-0.982-0.982l0,0
												c0-0.542,0.439-0.982,0.982-0.982h60.859c0.542,0,0.982,0.44,0.982,0.982l0,0
												C301.222,299.725,300.783,300.164,300.24,300.164z"/>
											<path style="fill:#BAD8EB;" d="M280.294,306.545h-40.6c-0.444,0-0.805-0.36-0.805-0.805v-0.354
												c0-0.444,0.36-0.805,0.805-0.805h40.6c0.444,0,0.805,0.36,0.805,0.805v0.354
												C281.099,306.185,280.739,306.545,280.294,306.545z"/>
										</g>
									</g>
									<g>
										<rect x="312.51" y="269.244" style="fill:#DD4C65;" width="18.65" height="14.724"/>
										<path style="fill:#BAD8EB;" d="M331.161,296.729h-18.65c-1.084,0-1.963-0.879-1.963-1.963l0,0
											c0-1.084,0.879-1.963,1.963-1.963h18.65c1.084,0,1.963,0.879,1.963,1.963l0,0
											C333.124,295.85,332.245,296.729,331.161,296.729z"/>
									</g>
									<g>
										<rect x="340.977" y="269.244" style="fill:#F2B468;" width="18.65" height="14.724"/>
										<path style="fill:#BAD8EB;" d="M359.627,296.729h-18.65c-1.084,0-1.963-0.879-1.963-1.963l0,0
											c0-1.084,0.879-1.963,1.963-1.963h18.65c1.084,0,1.963,0.879,1.963,1.963l0,0
											C361.591,295.85,360.712,296.729,359.627,296.729z"/>
									</g>
								</g>
								<g>
									<g>
										<path style="fill:#BAD8EB;" d="M260.904,374.497h-21.942c-0.311,0-0.563-0.252-0.563-0.563v-0.633
											c0-0.311,0.252-0.563,0.563-0.563h21.942c0.311,0,0.563,0.252,0.563,0.563v0.633
											C261.467,374.245,261.215,374.497,260.904,374.497z"/>
										<path style="fill:#BAD8EB;" d="M253.617,380.215h-14.576c-0.255,0-0.462-0.207-0.462-0.462v-0.836
											c0-0.255,0.207-0.462,0.462-0.462h14.576c0.255,0,0.462,0.207,0.462,0.462v0.836
											C254.078,380.008,253.872,380.215,253.617,380.215z"/>
									</g>
									<g>
										<path style="fill:#BAD8EB;" d="M308.021,374.497h-21.942c-0.311,0-0.563-0.252-0.563-0.563v-0.633
											c0-0.311,0.252-0.563,0.563-0.563h21.942c0.311,0,0.563,0.252,0.563,0.563v0.633
											C308.584,374.245,308.332,374.497,308.021,374.497z"/>
										<path style="fill:#BAD8EB;" d="M300.734,380.215h-14.576c-0.255,0-0.462-0.207-0.462-0.462v-0.836
											c0-0.255,0.207-0.462,0.462-0.462h14.576c0.255,0,0.461,0.207,0.461,0.462v0.836
											C301.195,380.008,300.988,380.215,300.734,380.215z"/>
									</g>
									<g>
										<path style="fill:#BAD8EB;" d="M355.138,374.497h-21.941c-0.311,0-0.563-0.252-0.563-0.563v-0.633
											c0-0.311,0.252-0.563,0.563-0.563h21.941c0.311,0,0.563,0.252,0.563,0.563v0.633
											C355.701,374.245,355.449,374.497,355.138,374.497z"/>
										<path style="fill:#BAD8EB;" d="M347.851,380.215h-14.576c-0.255,0-0.462-0.207-0.462-0.462v-0.836
											c0-0.255,0.207-0.462,0.462-0.462h14.576c0.255,0,0.462,0.207,0.462,0.462v0.836
											C348.312,380.008,348.105,380.215,347.851,380.215z"/>
									</g>
									<g>
										<path style="fill:none;stroke:#DD4C65;stroke-width:0.7976;stroke-miterlimit:10;" d="M269.29,364.46h-32.333
											c-1.643,0-2.975-1.332-2.975-2.975v-32.333c0-1.643,1.332-2.975,2.975-2.975h32.333c1.643,0,2.975,1.332,2.975,2.975
											v32.333C272.265,363.128,270.933,364.46,269.29,364.46z"/>
										<path style="fill:none;stroke:#DD4C65;stroke-width:0.7976;stroke-miterlimit:10;" d="M260.067,348.509H246.18
											c-0.35,0-0.633-0.284-0.633-0.634v-3.119c0-0.35,0.284-0.633,0.633-0.633h13.886c0.35,0,0.634,0.284,0.634,0.633v3.119
											C260.7,348.225,260.417,348.509,260.067,348.509z"/>
									</g>
									<g>
										<path style="fill:none;stroke:#F2B468;stroke-width:0.7976;stroke-miterlimit:10;" d="M319.536,364.46h-32.333
											c-1.643,0-2.975-1.332-2.975-2.975v-32.333c0-1.643,1.332-2.975,2.975-2.975h32.333c1.643,0,2.975,1.332,2.975,2.975
											v32.333C322.51,363.128,321.179,364.46,319.536,364.46z"/>
										<path style="fill:none;stroke:#F2B468;stroke-width:0.7976;stroke-miterlimit:10;" d="M310.313,348.509h-13.886
											c-0.35,0-0.633-0.284-0.633-0.634v-3.119c0-0.35,0.284-0.633,0.633-0.633h13.886c0.35,0,0.634,0.284,0.634,0.633v3.119
											C310.946,348.225,310.662,348.509,310.313,348.509z"/>
									</g>
									<g>
										<path style="fill:none;stroke:#4DC7B8;stroke-width:0.7976;stroke-miterlimit:10;" d="M365.794,364.46h-32.333
											c-1.643,0-2.975-1.332-2.975-2.975v-32.333c0-1.643,1.332-2.975,2.975-2.975h32.333c1.643,0,2.975,1.332,2.975,2.975
											v32.333C368.769,363.128,367.437,364.46,365.794,364.46z"/>
										<path style="fill:none;stroke:#4DC7B8;stroke-width:0.7976;stroke-miterlimit:10;" d="M356.57,348.509h-13.886
											c-0.35,0-0.634-0.284-0.634-0.634v-3.119c0-0.35,0.284-0.633,0.634-0.633h13.886c0.35,0,0.634,0.284,0.634,0.633v3.119
											C357.204,348.225,356.92,348.509,356.57,348.509z"/>
									</g>
								</g>
								<g>
									
										<text transform="matrix(1 0 0 1 312.7559 205.1396)" style="fill:#DD4C65; font-family:'FiraSans-Bold'; font-size:22.7057px;">50% </text>
									
										<text transform="matrix(1 0 0 1 304.3203 220.8848)" style="fill:#141829; font-family:'Raleway-Bold'; font-size:12.2214px;">DISCOUNT</text>
									
										<rect x="301.713" y="186.789" style="fill:none;stroke:#2C3540;stroke-width:0.9816;stroke-miterlimit:10;" width="65.767" height="38.283"/>
								</g>
							</g>
						</g>
						<path style="fill:#131A36;" d="M322.326,150.47H275.21c-2.711,0-4.908-2.197-4.908-4.908l0,0c0-2.711,2.198-4.908,4.908-4.908
							h47.117c2.711,0,4.908,2.197,4.908,4.908l0,0C327.234,148.273,325.037,150.47,322.326,150.47z"/>
					</g>
					<g>
						<g>
							<polygon style="fill:#F2C38A;" points="262.711,255.662 194.718,255.662 194.718,186.789 277.525,186.789 							"/>
						</g>
						<g>
							<polygon style="fill:#F2B468;" points="296.663,250.111 262.711,255.662 262.711,186.789 296.663,186.789 							"/>
						</g>
					</g>
					<g>
						<g>
							<rect x="116.487" y="303.979" style="fill:#4DC7B8;" width="42.445" height="56.264"/>
							<rect x="132.28" y="303.979" style="fill:#A8E4DC;" width="10.858" height="54.29"/>
						</g>
						<g>
							<rect x="167.816" y="277.328" style="fill:#4DC7B8;" width="29.613" height="48.368"/>
							<rect x="176.7" y="277.328" style="fill:#A8E4DC;" width="10.858" height="48.368"/>
						</g>
						<g>
							<rect x="137.216" y="325.695" style="fill:#F2C38A;" width="62.187" height="32.574"/>
							<rect x="162.88" y="325.695" style="fill:#FBEBD7;" width="9.871" height="32.574"/>
						</g>
						
							<path style="fill:none;stroke:#5B7A87;stroke-width:3.9484;stroke-linecap:round;stroke-linejoin:round;stroke-miterlimit:10;" d="
							M86.38,291.394h5.338c5.505,0,10.245,3.886,11.325,9.285l11.716,58.578v18.202c0,5.621,4.557,10.177,10.177,10.177h73.726"/>
						
							<polyline style="fill:none;stroke:#5B7A87;stroke-width:3.9484;stroke-linecap:round;stroke-linejoin:round;stroke-miterlimit:10;" points="
							105.629,311.136 212.235,311.136 196.195,360.49 114.759,360.49 						"/>
						
							<line style="fill:none;stroke:#5B7A87;stroke-width:1.9742;stroke-linecap:round;stroke-linejoin:round;stroke-miterlimit:10;" x1="129.291" y1="311.136" x2="134.4" y2="360.49"/>
						
							<line style="fill:none;stroke:#5B7A87;stroke-width:1.9742;stroke-linecap:round;stroke-linejoin:round;stroke-miterlimit:10;" x1="181.517" y1="311.136" x2="175.556" y2="360.49"/>
						
							<line style="fill:none;stroke:#5B7A87;stroke-width:1.9742;stroke-linecap:round;stroke-linejoin:round;stroke-miterlimit:10;" x1="156.823" y1="311.136" x2="156.823" y2="360.49"/>
						<g>
							
								<ellipse transform="matrix(0.7071 -0.7071 0.7071 0.7071 -236.1786 211.5016)" style="fill:#5B7A87;" cx="137.216" cy="390.844" rx="9.871" ry="9.871"/>
							
								<ellipse transform="matrix(0.9231 -0.3845 0.3845 0.9231 -139.7417 82.8152)" style="fill:#FFFFFF;" cx="137.216" cy="390.844" rx="7.897" ry="7.897"/>
							<path style="fill:#5B7A87;" d="M142.151,390.844c0,2.726-2.21,4.936-4.936,4.936s-4.936-2.21-4.936-4.936
								c0-2.726,2.21-4.935,4.936-4.935S142.151,388.118,142.151,390.844z"/>
						</g>
						<g>
							
								<ellipse transform="matrix(0.7071 -0.7071 0.7071 0.7071 -224.0358 240.8169)" style="fill:#5B7A87;" cx="178.674" cy="390.844" rx="9.871" ry="9.871"/>
							
								<ellipse transform="matrix(0.6572 -0.7537 0.7537 0.6572 -233.3327 268.6399)" style="fill:#FFFFFF;" cx="178.674" cy="390.844" rx="7.897" ry="7.897"/>
							<path style="fill:#5B7A87;" d="M183.609,390.844c0,2.726-2.21,4.936-4.935,4.936c-2.726,0-4.936-2.21-4.936-4.936
								c0-2.726,2.21-4.935,4.936-4.935C181.399,385.908,183.609,388.118,183.609,390.844z"/>
						</g>
						
							<line style="fill:none;stroke:#5B7A87;stroke-width:1.9742;stroke-linecap:round;stroke-linejoin:round;stroke-miterlimit:10;" x1="108.442" y1="327.669" x2="206.861" y2="327.669"/>
						
							<line style="fill:none;stroke:#5B7A87;stroke-width:1.9742;stroke-linecap:round;stroke-linejoin:round;stroke-miterlimit:10;" x1="112.045" y1="345.437" x2="200.883" y2="345.437"/>
						<path style="fill:#5B7A87;" d="M88.354,296.082H71.574c-2.453,0-4.442-1.989-4.442-4.442l0,0c0-2.453,1.989-4.442,4.442-4.442
							h16.781c2.453,0,4.442,1.989,4.442,4.442l0,0C92.796,294.094,90.808,296.082,88.354,296.082z"/>
					</g>
					<g>
						<g>
							<rect x="330.676" y="360.485" style="fill:#F2C38A;" width="32.646" height="45.202"/>
							<rect x="363.322" y="360.485" style="fill:#F2B468;" width="32.646" height="45.202"/>
							<rect x="343.49" y="360.485" style="fill:#F2B468;" width="7.323" height="45.202"/>
							<rect x="376.442" y="360.485" style="fill:#F2C38A;" width="7.322" height="45.202"/>
						</g>
						<rect x="376.627" y="330.103" style="fill:#DD4C65;" width="32.691" height="75.583"/>
						<rect x="405.517" y="330.103" style="fill:#DD314E;" width="32.691" height="75.583"/>
					</g>
					<rect x="213.369" y="186.789" style="fill:#F2B468;" width="25.522" height="68.712"/>
					<polygon style="fill:#F2C38A;" points="290.915,250.594 272.265,254.52 272.265,186.789 290.915,186.789 					"/>
					<g>
						<g>
							<g>
								<g>
									<path style="fill:#E8B3A0;" d="M273.245,289.845c-4.54-5.82-11.354-13.418-17.477-15.688l-17.033-17.163
										c0,0-0.162-2.427-1.425-4.626c0,0-0.793,0.339-0.559,1.621c0.234,1.282-3.206-1.612-5.409-4.108
										c-2.203-2.496-1.055,8.483,4.6,9.777l14.241,18.264c0,0,8.115,12.797,16.065,18.985
										C270.892,300.523,276.865,294.486,273.245,289.845z"/>
									<g>
										<path style="fill:#4DC7B8;" d="M265.813,280.257c0.296-0.052,19.251,8.295,10.156,17.489c-8.851,8.95-18.5-9.62-18.5-9.62
											L265.813,280.257z"/>
										
											<line style="fill:none;stroke:#FFFFFF;stroke-width:0.3521;stroke-miterlimit:10;" x1="267.739" y1="281.016" x2="258.477" y2="290.012"/>
									</g>
								</g>
								<path style="fill:none;stroke:#FFFFFF;stroke-width:0.3521;stroke-miterlimit:10;" d="M271.702,283.168
									c3.529,2.803,8.199,10.603,4.267,14.578c-2.569,2.598-5.42,2.681-8.174,1.491"/>
							</g>
							<g>
								<g>
									
										<rect x="263.023" y="272.3" transform="matrix(0.9656 -0.2601 0.2601 0.9656 -63.3408 79.3283)" style="fill:#EBBDA0;" width="10.045" height="13.354"/>
									<path style="fill:#DB9680;" d="M261.46,273.836l0.205,0.761l1.627,6.04c0,0,5.582-4.311,5.881-6.801
										C269.471,271.346,261.46,273.836,261.46,273.836z"/>
								</g>
								<path style="fill:#EBBDA0;" d="M261.561,248.226c0,0-7.966,6.638-12.834,8.851c0,0-0.442,1.622,2.655,2.803
									c0,0,0.063,12.526,6.195,15.182c6.133,2.655,13.581-3.838,13.581-3.838s10.617-11.98,7.224-20.15
									C274.99,242.903,269.085,246.603,261.561,248.226z"/>
								<g>
									<path style="fill:#060E33;" d="M258.651,256.066c-0.361,0.727-0.995,1.147-1.418,0.937
										c-0.423-0.209-0.474-0.969-0.113-1.696c0.36-0.727,0.995-1.147,1.418-0.937
										C258.961,254.58,259.012,255.339,258.651,256.066z"/>
									
										<path style="fill:none;stroke:#060E33;stroke-width:0.7573;stroke-linecap:round;stroke-linejoin:round;stroke-miterlimit:10;" d="
										M257.578,251.074c0,0,2.529,0.615,2.461,2.529"/>
									
										<path style="fill:none;stroke:#060E33;stroke-width:0.7573;stroke-linecap:round;stroke-linejoin:round;stroke-miterlimit:10;" d="
										M254.468,265.113c0,0,0.068,1.572,2.119,1.504c2.051-0.069,2.051-1.504,2.051-1.504"/>
								</g>
								<g>
									<path style="fill:#37424F;" d="M260.824,248.521c0,0-3.018,8.542,3.915,10.902c6.933,2.36,8.427,10.504,5.33,13.307
										c-3.098,2.803,22.339-15.654,1.081-28.93c0,0-12.539,0.002-13.129,7.229L260.824,248.521z"/>
									<path style="fill:#37424F;" d="M269.173,273.836c0,0,20.484-5.128,11.979-22.346c-7.059-14.291-17.639-6.367-17.639-6.367
										S275.478,264.505,269.173,273.836z"/>
								</g>
							</g>
							<g>
								<g>
									<path style="fill:#4DC7B8;" d="M289.18,407.653l-10.224,4.927c-0.939,0.453-0.617,1.864,0.426,1.864h9.086
										c0.252,0,0.494-0.097,0.677-0.271l0.84-0.802v1.374h3.988c0.619,0,1.083-0.566,0.962-1.173l-1.143-5.717
										c-0.103-0.513-0.591-0.856-1.108-0.777l-3.223,0.488C289.362,407.581,289.268,407.61,289.18,407.653z"/>
									<path style="fill:#272F38;" d="M282.408,320.264c0,0,11.729,23.97,2.72,49.484c0,0,9.514,24.79,8.478,37.191l-4.545,0.803
										l-16.176-37.172l-3.705-41.212L282.408,320.264z"/>
								</g>
								<g>
									<path style="fill:#4DC7B8;" d="M260.905,408.346l-10.087,4.862c-1.005,0.484-0.66,1.994,0.455,1.994h9.179l1.124-1.073
										v1.374h5.184l-1.912-6.897L260.905,408.346z"/>
									<path style="fill:#37424F;" d="M282.408,320.264c0,0,2.168,11.737-16.779,49.925c0,0,2.417,12.788-0.782,38.416h-3.852
										l-8.19-35.931l6.003-49.804L282.408,320.264z"/>
								</g>
							</g>
							<g>
								<g>
									<path style="fill:#4DC7B8;" d="M263.42,281.115l-14.325,53.047c0,0,30.191,7.603,41.947,0.097l-17.219-53.144H263.42z"/>
								</g>
								<g>
									<g>
										<path style="fill:#E8B3A0;" d="M264.41,289.845c-4.54-5.82-11.354-13.418-17.477-15.688l-17.033-17.163
											c0,0-0.162-2.427-1.425-4.626c0,0-0.793,0.339-0.559,1.621c0.235,1.282-3.206-1.612-5.409-4.108
											c-2.203-2.496-1.055,8.483,4.6,9.777l14.241,18.264c0,0,8.115,12.797,16.065,18.985
											C262.058,300.523,268.03,294.486,264.41,289.845z"/>
										<g>
											<path style="fill:#4DC7B8;" d="M256.978,280.257c0.296-0.052,19.251,8.295,10.157,17.489
												c-8.851,8.95-18.5-9.62-18.5-9.62L256.978,280.257z"/>
											
												<line style="fill:none;stroke:#FFFFFF;stroke-width:0.3521;stroke-miterlimit:10;" x1="258.905" y1="281.016" x2="249.642" y2="290.012"/>
										</g>
									</g>
									<path style="fill:none;stroke:#FFFFFF;stroke-width:0.3521;stroke-miterlimit:10;" d="M262.867,283.168
										c3.529,2.803,8.199,10.603,4.267,14.578c-2.569,2.598-5.42,2.681-8.174,1.491"/>
								</g>
							</g>
						</g>
						<path style="fill:#37424F;" d="M266.375,243.722c0,0,18.651-2.945,20.614,7.853c1.963,10.798-9.816,14.724-4.908,24.54
							c4.908,9.816,8.834,38.283-4.908,34.356c-13.742-3.926-9.336-37.644-3.196-42.871
							C280.118,262.373,279.136,244.704,266.375,243.722z"/>
					</g>
					<g>
						<g>
							<path style="fill:#E8B3A0;" d="M437.658,285.75l-15.798,4.719c0,0-22.297-9.936-22.873-9.604
								c-0.576,0.332-4.901-5.993-5.272-6.148c-0.371-0.156-7.551,0.32-5.516,6.556c2.036,6.236,9.025,3.79,9.025,3.79l19.326,15.13
								c1.209,0.947,2.777,1.307,4.278,0.984l19.377-4.175L437.658,285.75z"/>
							<g>
								<path style="fill:#37424F;" d="M432.059,327.674c0,0-9.943,19.887-14.623,38.311l5.849,39.481h4.972
									c0,0,7.899-26.705,0.292-38.896c0,0,27.783-14.33,32.462-40.359L432.059,327.674z"/>
								<path style="fill:#131A36;" d="M423.286,405.467c0,0-17.307,7.091-11.595,7.091c0.093,0,16.252,0,16.252,0l0.316-7.091
									H423.286z"/>
							</g>
							<g>
								<polygon style="fill:#2C3540;" points="461.012,326.211 451.069,405.467 446.39,405.467 441.418,350.193 								"/>
								<path style="fill:#131A36;" d="M446.243,405.467c0,0-13.737,7.091-11.595,7.091c4.576,0,16.251,0,16.251,0l0.316-7.091
									H446.243z"/>
							</g>
							<g>
								<path style="fill:#F2B468;" d="M454.786,268.809c0,0,8.046,22.817,12.337,57.403c0,0-28.696,9.665-41.569,0l4.828-21.197
									c0,0-7.406-7.509-10.408-16.091l23.575-18.505C443.548,270.418,450.495,275.782,454.786,268.809z"/>
								<path style="fill:none;stroke:#FFFFFF;stroke-width:0.717;stroke-miterlimit:10;" d="M430.381,305.014
									c0,0,11.488,0.268,15.533-16.896"/>
								
									<line style="fill:none;stroke:#FFFFFF;stroke-width:0.717;stroke-miterlimit:10;" x1="444.997" y1="301.796" x2="444.997" y2="323.788"/>
								<path style="fill:none;stroke:#FFFFFF;stroke-width:0.717;stroke-miterlimit:10;" d="M423.22,286.375
									c0,0,4.606,12.458,13.192,16.755"/>
							</g>
							<g>
								<g>
									<path style="fill:#E8B3A0;" d="M442.946,265.855l10.603-11.407l1.813,15.968c0,0-6.923,4.452-12.416,1.089V265.855z"/>
									<path style="fill:#E89B80;" d="M454.238,260.522c0,0-4.32,9.45-11.292,8.867v-4.421l10.691-9.808L454.238,260.522z"/>
								</g>
								<g>
									<path style="fill:#E8B3A0;" d="M435.132,239.72c0,0-1.38,0.531-1.167,8.066c0,0-2.547,2.76-4.245,4.351
										c-1.698,1.592,2.229,2.441,2.229,2.441s0.849,13.615,9.021,12.167c8.172-1.448,10.295-10.893,10.295-10.893
										s3.29-1.698,2.123-5.625c-1.167-3.927-4.033,0-4.033,0l0.424-9.552C449.778,240.675,442.985,233.671,435.132,239.72z"/>
									<g>
										
											<path style="fill:none;stroke:#37424F;stroke-width:0.717;stroke-linecap:round;stroke-linejoin:round;stroke-miterlimit:10;" d="
											M434.495,259.248c0,0,5.556,2.017,6.97-2.759"/>
										<path style="fill:#37424F;" d="M436.724,247.415c0,0.85-0.333,1.539-0.743,1.539c-0.41,0-0.743-0.689-0.743-1.539
											s0.333-1.539,0.743-1.539C436.391,245.876,436.724,246.565,436.724,247.415z"/>
										
											<path style="fill:none;stroke:#37424F;stroke-width:1.0755;stroke-linecap:round;stroke-linejoin:round;stroke-miterlimit:10;" d="
											M436.724,243.01c0,0,3.502,0.212,3.608,2.866"/>
									</g>
								</g>
							</g>
						</g>
						<path style="fill:#37424F;" d="M441.1,239.796c0,0-10.798,5.89-11.779,0.982c-0.982-4.908,11.011-3.401,11.011-3.401
							s-11.011-0.525-8.066-4.452c2.945-3.926,10.798,1.963,10.798,1.963s-0.982-8.834,3.926-5.89
							c4.908,2.945,4.908,7.853,4.908,7.853s6.871-3.926,5.89,5.89c-0.982,9.816-6.663,14.724-6.663,14.724l-0.209-1.963
							c0,0,3.69-3.28,1.845-6.548c0,0-0.863-1.305-3.808,1.64c0,0-3.926,1.963-2.945-7.853
							C446.008,242.741,437.174,249.612,441.1,239.796z"/>
					</g>
					<g>
						<g>
							<path style="fill:none;stroke:#DD4C65;stroke-width:1.7773;stroke-miterlimit:10;" d="M158.399,172.065
								c0,9.216-7.471,16.687-16.687,16.687c-9.216,0-16.687-7.471-16.687-16.687c0-9.216,7.471-16.687,16.687-16.687
								C150.928,155.378,158.399,162.849,158.399,172.065z"/>
							
								<text transform="matrix(1 0 0 1 132.9414 180.834)" style="fill:#DD4C65; font-family:'Raleway-Bold'; font-size:27.9261px;">$</text>
						</g>
						<g>
							
								<ellipse transform="matrix(0.8507 -0.5257 0.5257 0.8507 -163.7168 69.5904)" style="fill:none;stroke:#F2A952;stroke-width:1.8517;stroke-miterlimit:10;" cx="40.626" cy="322.949" rx="17.386" ry="17.386"/>
							<text transform="matrix(1 0 0 1 31.4883 332.084)" style="fill:#F2A952; font-family:'Raleway-Bold'; font-size:29.0949px;">%</text>
						</g>
						<g>
							<g>
								
									<ellipse transform="matrix(0.7715 -0.6362 0.6362 0.7715 29.0413 288.8531)" style="fill:none;stroke:#4DC7B8;stroke-width:1.7411;stroke-miterlimit:10;" cx="416.665" cy="103.995" rx="16.347" ry="16.347"/>
							</g>
							<path style="fill:#4DC7B8;" d="M425.265,96.991c-1.884-1.883-4.938-1.883-6.822,0l-1.779,1.779l-1.779-1.779
								c-1.883-1.883-4.937-1.883-6.821,0c-1.884,1.884-1.884,4.938,0,6.821l1.779,1.779l6.821,6.821l6.822-6.821l1.779-1.779
								C427.148,101.928,427.148,98.874,425.265,96.991z"/>
						</g>
					</g>
				</g>
			</g>
		</g>
	</g>
</g>
</svg>
